<svg width="140" height="160" viewBox="0 0 140 160" fill="none" xmlns="http://www.w3.org/2000/svg">
<path d="M22.373 5.07135C22.3316 4.49245 22.7901 4 23.3705 4H116.63C117.21 4 117.668 4.49244 117.627 5.07136L110.274 107.864C110.242 108.302 109.929 108.669 109.501 108.767L70.2251 117.843C70.077 117.877 69.923 117.877 69.7749 117.843L30.4986 108.767C30.0709 108.669 29.7576 108.302 29.7263 107.864L22.373 5.07135Z" fill="#FF7A00" stroke="#CE4A00" stroke-width="8"/>
<path d="M26 8H70V114L33.0805 105.945L26 8Z" fill="#EE5600"/>
<path d="M36.9475 91.176V76.584H54.3555V85.928L58.5795 90.152H81.3635L85.5875 85.928V65.704L81.3635 61.48H38.2275V15.4H101.204V30.248H55.3795V46.632H89.0435L102.996 60.584V91.176L89.1715 105H50.7715L36.9475 91.176Z" fill="url(#paint0_linear_55_200)"/>
<path d="M39.8373 136.2H43.1013V143.232H50.2053V136.2H53.4693V153H50.2053V146.016H43.1013V153H39.8373V136.2ZM60.4112 138.96H55.3952V136.2H68.6912V138.96H63.6752V153H60.4112V138.96ZM70.6108 136.2H73.6348L78.6268 147.048H78.6748L83.6908 136.2H86.7148V153H83.5708V142.776H83.5228L79.6588 150.648H77.6428L73.8028 142.776H73.7548V153H70.6108V136.2ZM89.8295 136.2H93.0935V150.24H101.494V153H89.8295V136.2Z" fill="white"/>
<defs>
<linearGradient id="paint0_linear_55_200" x1="37" y1="67.8617" x2="104.5" y2="67.8617" gradientUnits="userSpaceOnUse">
<stop offset="0.489583" stop-color="#BABABA"/>
<stop offset="0.489683" stop-color="white"/>
</linearGradient>
</defs>
</svg>
